<svg id="svg" version="1.1" xmlns="http://www.w3.org/2000/svg" xmlns:xlink="http://www.w3.org/1999/xlink" width="400" height="390.9090909090909" viewBox="0, 0, 400,390.9090909090909"><g id="svgg"><path id="path0" d="M83.447 50.394 C 78.561 50.800,78.156 51.227,77.603 56.548 L 77.354 58.942 73.353 59.120 C 68.173 59.351,68.426 59.106,68.426 63.897 L 68.426 67.924 66.023 68.175 C 64.701 68.313,62.698 68.426,61.572 68.426 C 59.105 68.426,59.055 68.531,59.047 73.803 L 59.042 77.419 54.950 77.419 C 51.305 77.419,50.814 77.502,50.454 78.176 C 49.974 79.072,49.930 156.953,50.406 162.391 C 50.839 167.341,50.932 167.405,58.687 168.112 C 58.814 168.123,59.030 171.745,59.168 176.160 C 59.487 186.425,59.277 186.043,64.809 186.408 C 66.584 186.525,68.037 186.728,68.039 186.859 C 68.041 186.990,68.215 189.560,68.426 192.571 C 69.102 202.219,69.588 203.126,74.451 203.809 L 77.419 204.225 77.419 208.256 C 77.419 213.629,77.659 213.881,82.772 213.881 L 86.413 213.881 86.413 217.763 C 86.413 222.844,86.442 222.874,91.524 222.874 L 95.406 222.874 95.426 226.491 C 95.495 239.146,95.939 240.193,101.431 240.651 L 104.790 240.930 104.790 244.382 C 104.790 249.565,105.497 250.244,110.898 250.244 L 113.783 250.244 113.783 253.884 C 113.783 258.915,113.870 259.007,118.798 259.175 L 122.705 259.309 122.838 263.215 C 123.006 268.135,123.106 268.231,128.073 268.231 L 131.656 268.231 131.875 272.220 C 132.150 277.211,132.164 277.224,137.318 277.224 L 141.153 277.224 141.159 281.036 C 141.168 286.279,141.501 286.608,146.797 286.608 L 150.147 286.608 150.147 290.084 C 150.147 295.002,150.445 295.314,155.343 295.528 L 159.077 295.692 159.351 298.985 C 159.794 304.298,160.248 304.513,171.130 304.566 L 177.059 304.594 177.292 307.429 C 177.420 308.988,177.567 310.968,177.618 311.828 L 177.713 313.392 182.111 313.503 L 186.510 313.613 186.510 317.684 C 186.510 322.864,186.623 322.972,192.021 322.972 L 195.794 322.972 195.976 326.123 C 196.266 331.122,196.868 331.424,207.331 331.832 L 213.881 332.087 213.886 335.252 C 213.896 341.002,213.804 340.953,224.485 340.956 L 231.766 340.958 232.044 344.509 C 232.517 350.559,227.622 350.014,280.156 349.871 L 322.385 349.756 322.496 345.357 L 322.606 340.958 326.667 340.958 C 332.309 340.958,331.965 341.265,331.965 336.224 L 331.965 331.965 335.814 331.965 C 340.814 331.965,340.889 331.889,341.041 326.679 L 341.153 322.789 344.394 322.329 C 350.077 321.523,349.756 323.158,349.756 295.015 C 349.756 265.904,350.918 268.837,339.204 268.390 L 331.965 268.114 331.965 264.545 C 331.965 259.375,331.827 259.238,326.664 259.238 L 322.581 259.238 322.559 256.403 C 322.511 250.334,322.517 250.337,312.121 250.283 L 304.594 250.244 304.594 246.187 C 304.594 241.257,304.735 241.403,299.609 241.042 L 295.601 240.759 295.601 239.070 C 295.601 236.016,294.847 233.467,293.726 232.733 C 292.486 231.920,253.340 231.445,251.320 232.218 L 250.244 232.630 250.244 236.692 L 250.244 240.754 245.847 241.100 L 241.450 241.447 241.202 242.620 C 241.065 243.265,240.932 245.228,240.906 246.982 L 240.860 250.171 236.969 250.305 C 232.141 250.472,232.191 250.422,231.930 255.406 L 231.720 259.433 231.242 256.192 C 230.477 251.001,229.943 250.716,220.321 250.368 L 213.490 250.121 213.490 246.443 C 213.490 241.676,213.257 241.252,210.641 241.248 C 209.520 241.246,207.678 241.133,206.549 240.998 L 204.497 240.751 204.487 238.362 C 204.466 232.831,204.120 232.420,199.181 232.050 L 195.570 231.779 195.310 229.379 C 194.706 223.799,194.423 223.506,189.201 223.067 L 186.222 222.817 185.957 219.891 C 185.512 214.987,185.061 214.532,180.180 214.075 L 177.232 213.799 176.974 210.614 C 176.581 205.751,175.781 205.034,170.634 204.934 L 168.248 204.888 168.026 201.271 C 167.692 195.807,167.929 196.055,162.665 195.657 L 159.140 195.391 159.140 191.733 C 159.140 186.754,158.893 186.510,153.861 186.510 L 150.147 186.510 150.147 182.433 C 150.147 179.272,150.010 178.219,149.541 177.749 C 149.208 177.416,148.677 176.128,148.362 174.887 C 147.602 171.895,145.972 170.332,142.960 169.707 C 139.260 168.939,140.083 168.226,144.852 168.071 C 150.025 167.902,150.117 167.809,150.134 162.757 L 150.147 159.140 153.996 159.140 C 159.037 159.140,159.140 159.036,159.140 153.928 L 159.140 150.147 163.433 150.147 C 168.488 150.147,168.084 150.654,168.232 144.115 L 168.328 139.843 170.356 139.387 C 175.315 138.272,177.157 133.831,175.380 127.270 C 174.653 124.581,170.623 119.213,168.930 118.675 C 168.189 118.440,168.132 118.100,168.116 113.854 C 168.084 105.384,167.906 105.080,162.853 104.859 L 159.140 104.697 159.140 100.685 C 159.140 95.746,159.183 95.790,154.071 95.508 L 150.147 95.292 150.147 88.773 C 150.147 78.388,149.889 77.903,144.184 77.528 L 140.762 77.304 140.756 73.354 C 140.749 68.268,140.945 68.477,136.056 68.343 L 131.965 68.231 131.691 61.388 C 131.355 52.987,131.056 51.777,129.105 50.917 C 127.553 50.234,90.484 49.809,83.447 50.394 M113.859 85.807 C 114.001 95.772,113.663 95.131,118.872 95.340 L 122.776 95.497 122.776 99.479 C 122.776 104.478,122.697 104.399,127.687 104.399 L 131.660 104.399 131.854 112.834 C 132.090 123.027,131.804 122.478,136.997 122.705 L 140.668 122.865 140.911 124.635 C 141.044 125.608,141.153 127.586,141.153 129.031 L 141.153 131.658 138.750 131.909 C 137.428 132.047,135.702 132.160,134.915 132.160 C 132.519 132.160,132.226 132.649,131.925 137.146 L 131.658 141.153 127.622 141.153 C 122.728 141.153,122.776 141.102,122.776 146.406 L 122.776 150.147 118.894 150.147 C 113.271 150.147,113.783 148.349,113.783 168.086 C 113.783 187.993,113.312 186.261,118.774 186.447 L 122.656 186.580 122.892 193.978 C 123.209 203.891,123.136 203.769,129.075 204.311 L 131.658 204.547 131.874 208.460 C 132.162 213.692,132.286 213.820,137.194 213.965 L 140.958 214.076 141.071 217.964 C 141.216 222.959,141.129 222.874,146.089 222.874 L 150.147 222.874 150.147 226.966 C 150.147 231.923,150.087 231.867,155.400 231.867 L 159.140 231.867 159.140 235.894 C 159.140 240.948,159.053 240.860,164.070 240.860 L 168.062 240.860 168.195 244.907 C 168.371 250.242,168.373 250.244,173.222 250.244 C 177.716 250.244,177.517 250.029,177.517 254.890 C 177.517 259.249,177.505 259.238,182.483 259.238 L 186.510 259.238 186.516 263.050 C 186.524 268.124,186.415 268.008,191.344 268.167 L 195.426 268.300 195.700 271.764 C 196.123 277.102,196.285 277.179,207.123 277.207 L 213.854 277.224 213.965 281.416 C 214.115 287.066,212.459 286.595,232.227 286.602 C 251.577 286.609,249.853 287.131,249.853 281.269 L 249.853 277.224 253.830 277.224 C 259.160 277.224,259.238 277.150,259.238 272.080 L 259.238 268.231 262.937 268.231 C 267.933 268.231,268.231 267.930,268.231 262.878 L 268.231 259.238 272.668 259.238 L 277.106 259.238 277.355 263.031 C 277.702 268.320,277.109 268.011,287.208 268.154 L 295.601 268.274 295.601 272.511 C 295.601 277.513,295.289 277.224,300.680 277.224 L 304.521 277.224 304.655 281.121 C 304.847 286.674,304.331 286.385,314.331 286.532 L 322.477 286.651 322.721 288.682 C 323.035 291.299,323.036 298.579,322.722 301.901 L 322.478 304.486 318.759 304.707 C 313.553 305.018,313.851 304.444,313.655 314.562 L 313.492 322.972 281.718 322.972 L 249.944 322.972 249.788 319.068 C 249.580 313.901,250.192 314.239,240.308 313.824 L 231.974 313.475 231.743 310.475 C 231.301 304.749,231.747 304.998,221.408 304.701 L 213.490 304.474 213.490 300.652 C 213.490 295.639,213.451 295.601,208.379 295.601 C 206.244 295.601,204.486 295.557,204.472 295.503 C 204.458 295.450,204.307 293.940,204.136 292.148 C 203.643 286.991,203.019 286.706,192.082 286.641 L 186.510 286.608 186.510 282.550 C 186.510 277.555,186.598 277.642,181.265 277.340 L 177.126 277.106 177.126 273.050 C 177.126 268.203,177.158 268.231,171.662 268.231 L 168.204 268.231 168.071 264.157 C 167.908 259.197,168.172 259.462,163.249 259.301 L 159.211 259.168 159.078 255.352 C 158.900 250.270,158.875 250.244,154.009 250.244 L 150.147 250.244 150.147 246.617 C 150.147 241.830,149.771 241.251,146.660 241.251 C 145.412 241.251,143.574 241.139,142.577 241.003 L 140.762 240.754 140.762 236.945 C 140.762 232.156,140.743 232.137,135.634 231.931 L 131.769 231.776 131.769 227.939 C 131.769 222.910,131.733 222.874,126.658 222.874 L 122.776 222.874 122.776 218.847 C 122.776 213.789,122.867 213.881,117.810 213.881 L 113.783 213.881 113.783 210.284 C 113.783 198.992,112.607 196.469,107.132 196.010 L 104.399 195.781 104.393 191.830 C 104.385 186.597,104.511 186.734,99.526 186.572 L 95.406 186.439 95.382 180.121 C 95.342 169.152,95.169 168.788,89.918 168.583 L 86.413 168.446 86.403 161.545 C 86.389 150.829,86.251 150.542,80.975 150.241 L 77.419 150.038 77.419 122.363 L 77.419 94.688 79.394 94.265 C 83.388 93.408,84.678 92.076,85.119 88.347 L 85.348 86.413 89.662 86.413 C 95.374 86.413,95.406 86.384,95.406 81.269 L 95.406 77.419 104.573 77.419 L 113.740 77.419 113.859 85.807 " stroke="none" fill="#0c4484" fill-rule="evenodd"></path><path id="path1" d="" stroke="none" fill="#104484" fill-rule="evenodd"></path><path id="path2" d="" stroke="none" fill="#104484" fill-rule="evenodd"></path><path id="path3" d="" stroke="none" fill="#104484" fill-rule="evenodd"></path><path id="path4" d="" stroke="none" fill="#104484" fill-rule="evenodd"></path></g></svg>