<svg id="svg" version="1.1" xmlns="http://www.w3.org/2000/svg" xmlns:xlink="http://www.w3.org/1999/xlink" width="400" height="358.97435897435895" viewBox="0, 0, 400,358.97435897435895"><g id="svgg"><path id="path0" d="M166.153 59.218 C 162.844 59.507,162.234 59.968,161.956 62.384 L 161.759 64.093 156.732 64.273 L 151.706 64.452 151.394 66.876 L 151.083 69.300 146.529 69.300 C 141.214 69.300,141.113 69.354,141.113 72.244 L 141.113 74.327 139.168 74.327 C 136.196 74.327,136.086 74.423,136.086 77.008 L 136.086 79.254 134.201 79.480 C 133.164 79.605,131.346 79.710,130.162 79.715 C 126.474 79.728,125.682 80.433,125.675 83.708 C 125.673 84.594,125.552 84.661,123.645 84.819 C 121.166 85.024,120.646 85.606,120.646 88.173 L 120.646 90.033 118.851 90.271 C 116.329 90.606,115.260 93.051,115.260 98.487 L 115.260 100.147 112.837 100.253 L 110.413 100.359 110.308 102.735 L 110.203 105.110 108.355 105.329 C 105.563 105.660,105.406 105.952,105.260 111.101 L 105.135 115.535 103.349 115.707 C 100.378 115.992,100.375 116.001,100.249 124.518 L 100.139 131.957 98.731 132.555 C 97.725 132.983,97.143 133.545,96.687 134.530 C 96.337 135.287,95.808 136.096,95.512 136.327 C 94.813 136.871,94.686 175.620,95.380 176.314 C 95.604 176.538,96.776 176.811,97.984 176.920 L 100.180 177.119 100.180 184.589 C 100.180 188.766,100.326 192.148,100.511 192.263 C 100.693 192.376,100.944 192.930,101.068 193.496 C 101.345 194.755,102.608 195.994,103.993 196.364 L 105.027 196.640 105.122 207.254 L 105.217 217.867 104.404 218.085 C 103.957 218.205,102.990 218.305,102.257 218.307 C 100.238 218.315,100.180 218.618,100.180 229.014 L 100.180 238.327 97.707 238.571 C 94.687 238.869,94.794 238.566,94.794 246.834 C 94.794 254.722,93.315 253.910,107.444 253.785 C 120.755 253.667,120.157 253.806,120.521 250.733 L 120.738 248.906 129.220 248.746 C 139.851 248.546,140.754 248.225,140.754 244.650 L 140.754 243.806 146.140 243.806 L 151.526 243.806 151.532 245.512 C 151.541 248.540,152.226 248.777,161.089 248.812 C 167.137 248.835,166.940 248.744,166.966 251.526 C 166.989 253.824,165.276 253.672,192.177 253.770 C 206.670 253.823,216.907 253.725,217.210 253.529 C 217.528 253.325,217.784 252.374,217.880 251.036 L 218.037 248.873 225.327 248.763 C 233.593 248.639,233.118 248.806,233.324 245.953 L 233.479 243.806 237.769 243.806 C 243.276 243.806,243.447 243.714,243.447 240.741 L 243.447 238.420 246.050 238.399 C 251.767 238.352,253.103 237.750,253.404 235.085 L 253.585 233.471 255.902 233.324 C 258.615 233.151,258.874 232.884,258.881 230.251 L 258.887 228.366 261.016 228.366 C 263.805 228.366,264.273 227.898,264.273 225.109 L 264.273 222.980 266.436 222.980 C 268.914 222.980,269.300 222.519,269.300 219.558 L 269.300 217.978 271.079 217.742 C 273.732 217.390,273.989 216.927,274.229 212.059 L 274.433 207.899 276.463 207.899 C 279.307 207.899,279.354 207.809,279.354 202.262 L 279.354 197.487 281.616 197.487 C 284.720 197.487,284.740 197.452,284.740 191.895 L 284.740 187.165 286.595 186.987 C 289.953 186.664,289.847 187.812,289.700 153.249 C 289.574 123.834,289.816 126.097,286.766 125.782 L 284.740 125.573 284.727 121.045 C 284.705 113.220,283.962 111.202,280.936 110.748 L 279.384 110.515 279.279 107.951 L 279.174 105.386 276.750 105.280 L 274.327 105.174 274.327 100.858 C 274.327 96.011,274.062 95.153,272.564 95.153 C 269.695 95.153,269.300 94.868,269.300 92.799 C 269.300 90.302,268.757 89.767,266.222 89.767 L 264.273 89.767 264.273 87.684 C 264.273 85.055,263.940 84.740,261.165 84.740 L 258.920 84.740 258.814 82.316 L 258.707 79.892 256.326 79.787 L 253.944 79.682 253.789 77.538 C 253.574 74.569,253.498 74.527,248.113 74.381 L 243.478 74.255 243.373 71.867 L 243.268 69.479 240.754 69.300 L 238.241 69.120 238.044 67.411 C 237.712 64.519,237.581 64.470,229.790 64.329 L 222.980 64.206 222.980 62.333 C 222.980 58.749,225.675 59.073,195.451 59.020 C 180.870 58.995,167.686 59.084,166.153 59.218 M212.932 86.625 C 212.940 89.575,212.932 89.570,218.444 89.704 L 223.272 89.821 223.575 91.462 C 224.031 93.931,224.876 94.386,229.533 94.669 L 233.393 94.903 233.399 96.913 C 233.406 99.626,233.640 99.885,236.319 100.141 L 238.600 100.359 238.791 102.265 C 239.000 104.345,239.436 104.831,241.113 104.847 C 243.276 104.868,243.796 105.198,244.037 106.706 C 244.368 108.772,245.158 109.553,247.142 109.777 L 248.833 109.968 248.833 112.183 C 248.833 114.925,249.154 115.260,251.777 115.260 L 253.860 115.260 253.860 117.582 C 253.860 120.302,254.214 120.646,257.013 120.646 L 258.777 120.646 258.984 127.379 C 259.248 135.952,259.023 135.417,262.567 135.898 L 264.273 136.130 264.273 156.575 L 264.273 177.020 262.367 177.020 C 259.291 177.020,259.189 177.195,258.972 182.881 C 258.786 187.778,258.783 187.792,257.920 187.792 C 255.264 187.792,254.287 189.452,253.961 194.524 L 253.770 197.487 251.869 197.487 C 248.943 197.487,248.833 197.585,248.833 200.196 L 248.833 202.469 247.307 202.666 C 246.468 202.774,245.377 202.905,244.883 202.958 C 244.036 203.047,243.980 203.188,243.879 205.476 L 243.773 207.899 241.447 207.899 C 238.787 207.899,238.420 208.314,238.420 211.318 L 238.420 212.894 235.996 213.000 L 233.573 213.106 233.467 215.530 L 233.360 217.953 229.517 217.996 C 223.624 218.061,223.573 218.082,223.257 220.614 C 222.915 223.348,223.580 223.112,215.764 223.280 C 207.871 223.450,207.899 223.438,207.899 226.417 L 207.899 228.366 192.509 228.366 L 177.119 228.366 176.926 226.236 C 176.656 223.260,176.786 223.339,172.206 223.339 C 169.977 223.339,166.674 223.234,164.867 223.106 L 161.580 222.873 161.580 220.977 C 161.580 217.783,162.387 217.947,146.922 217.996 C 131.508 218.044,131.338 218.061,131.015 219.572 C 130.889 220.163,130.766 217.778,130.743 214.273 L 130.700 207.899 132.646 207.899 C 135.927 207.899,135.727 208.379,135.727 200.526 C 135.727 192.443,135.733 192.460,132.666 192.460 L 130.733 192.460 130.627 190.036 L 130.521 187.612 128.097 187.506 L 125.673 187.400 125.668 180.504 C 125.663 173.401,125.524 171.995,124.823 171.989 C 124.600 171.987,124.147 171.345,123.819 170.562 C 123.404 169.575,122.825 168.949,121.933 168.524 L 120.646 167.910 120.646 154.556 L 120.646 141.202 122.634 141.037 C 125.543 140.796,125.479 140.973,125.604 132.837 L 125.715 125.673 127.777 125.673 C 130.658 125.673,130.700 125.591,130.700 120.036 L 130.700 115.260 133.214 115.260 L 135.727 115.260 135.727 112.747 L 135.727 110.233 137.989 110.233 C 140.782 110.233,141.113 109.921,141.113 107.289 L 141.113 105.206 143.196 105.206 C 145.790 105.206,146.140 104.859,146.140 102.279 L 146.140 100.212 148.564 100.106 L 150.987 100.000 151.093 97.397 L 151.198 94.794 155.761 94.788 C 161.245 94.781,161.306 94.752,161.508 91.950 L 161.666 89.767 166.201 89.754 C 173.587 89.733,175.833 88.940,176.197 86.225 L 176.396 84.740 194.661 84.740 L 212.926 84.740 212.932 86.625 M158.958 105.553 C 157.158 105.902,156.933 106.180,156.673 108.376 L 156.453 110.233 154.234 110.233 C 152.388 110.233,151.892 110.369,151.284 111.041 C 150.883 111.486,150.038 112.129,149.408 112.470 C 148.756 112.824,148.098 113.561,147.882 114.183 C 147.672 114.784,147.195 115.439,146.820 115.640 C 146.260 115.939,146.140 116.414,146.140 118.325 L 146.140 120.646 144.191 120.646 C 140.894 120.646,141.075 119.726,141.191 135.973 C 141.306 152.077,141.117 151.167,144.358 151.167 L 146.030 151.167 146.259 155.432 C 146.569 161.196,146.360 160.842,149.765 161.385 L 151.055 161.591 151.380 164.009 L 151.706 166.427 154.114 166.533 L 156.522 166.639 156.627 169.226 L 156.732 171.813 159.156 171.919 L 161.580 172.026 161.580 174.305 C 161.580 176.928,161.684 177.020,164.661 177.020 L 166.607 177.020 166.607 178.965 C 166.607 181.938,166.702 182.047,169.296 182.047 C 171.854 182.047,171.979 182.200,171.988 185.368 L 171.993 187.074 174.506 187.074 L 177.020 187.074 177.020 189.336 C 177.020 192.121,177.334 192.460,179.923 192.460 L 181.964 192.460 182.208 194.409 C 182.545 197.112,182.815 197.252,188.008 197.425 L 192.460 197.573 192.460 199.484 C 192.460 202.441,192.664 202.513,200.978 202.513 L 207.899 202.513 207.905 204.399 C 207.915 207.690,208.459 207.886,217.594 207.875 C 227.043 207.865,227.711 207.639,228.154 204.302 L 228.391 202.513 232.777 202.508 C 238.071 202.501,238.146 202.463,238.349 199.669 L 238.506 197.487 240.056 197.487 C 240.908 197.487,242.019 197.329,242.526 197.136 L 243.447 196.786 243.447 184.389 L 243.447 171.993 240.975 171.993 L 238.503 171.993 238.256 170.018 C 237.905 167.211,237.693 167.088,232.699 166.788 L 228.384 166.529 228.175 165.221 C 227.607 161.671,228.053 161.870,220.194 161.662 C 212.886 161.469,212.926 161.453,212.926 164.496 L 212.926 166.607 210.981 166.607 C 208.138 166.607,207.900 166.769,207.895 168.710 C 207.884 172.138,208.122 171.993,202.523 171.993 L 197.589 171.993 197.356 169.764 C 197.054 166.874,197.309 167.014,191.834 166.737 L 187.104 166.498 186.999 164.129 L 186.894 161.759 184.470 161.653 L 182.047 161.547 182.047 159.071 C 182.047 157.709,181.906 156.509,181.735 156.403 C 181.563 156.297,181.320 155.569,181.195 154.785 C 180.941 153.195,180.048 152.373,178.199 152.026 L 177.020 151.805 177.020 148.973 L 177.020 146.140 179.102 146.140 C 182.168 146.140,182.047 146.560,182.047 135.907 C 182.047 125.271,182.160 125.673,179.154 125.673 L 177.123 125.673 176.929 119.300 C 176.657 110.340,176.966 110.767,170.472 110.365 L 166.617 110.126 166.392 108.430 C 165.999 105.467,163.800 104.616,158.958 105.553 " stroke="none" fill="#14b42c" fill-rule="evenodd"></path><path id="path1" d="" stroke="none" fill="#1cb42c" fill-rule="evenodd"></path><path id="path2" d="" stroke="none" fill="#18b42c" fill-rule="evenodd"></path><path id="path3" d="" stroke="none" fill="#18b42c" fill-rule="evenodd"></path><path id="path4" d="" stroke="none" fill="#18b42c" fill-rule="evenodd"></path></g></svg>