<svg id="svg" version="1.1" xmlns="http://www.w3.org/2000/svg" xmlns:xlink="http://www.w3.org/1999/xlink" width="400" height="392" viewBox="0, 0, 400,392"><g id="svgg"><path id="path0" d="M152.853 36.428 C 149.304 36.749,148.668 37.403,148.363 41.047 L 148.132 43.802 140.641 44.041 C 131.770 44.324,132.157 44.103,132.157 48.898 L 132.157 52.157 124.977 52.157 C 116.052 52.157,116.326 52.018,116.136 56.635 L 115.998 60.000 112.999 60.005 C 108.098 60.014,108.281 59.853,108.151 64.258 L 108.039 68.039 101.942 68.274 C 93.773 68.588,92.576 69.233,92.549 73.333 C 92.532 75.812,92.285 76.025,89.071 76.323 C 85.033 76.699,84.569 77.165,84.376 81.036 C 84.208 84.403,84.016 84.691,81.921 84.700 C 77.457 84.719,76.078 87.536,76.078 96.644 L 76.078 100.000 73.039 100.005 C 68.093 100.014,68.281 99.850,68.151 104.258 L 68.039 108.039 64.803 108.250 C 60.147 108.553,60.298 108.272,60.078 117.041 L 59.896 124.314 56.886 124.314 C 52.218 124.314,52.376 124.023,52.232 132.866 L 52.110 140.306 49.516 140.584 C 43.767 141.199,44.118 137.526,44.118 197.059 C 44.118 255.186,43.736 251.180,49.314 251.643 L 52.157 251.878 52.162 258.782 C 52.170 268.214,52.177 268.228,57.697 268.233 L 59.904 268.235 60.068 275.488 C 60.260 284.042,60.068 283.678,64.488 283.862 L 67.761 283.999 67.998 285.186 C 68.128 285.838,68.235 287.567,68.235 289.027 C 68.235 292.183,68.198 292.157,72.722 292.157 L 75.969 292.157 76.163 298.553 C 76.416 306.914,76.500 307.096,80.396 307.741 C 84.497 308.420,84.313 308.264,84.319 311.066 C 84.329 315.533,84.389 315.596,89.047 315.955 L 92.052 316.187 92.265 319.284 C 92.578 323.854,93.538 324.314,102.765 324.314 C 108.545 324.314,108.221 324.043,108.230 328.880 C 108.236 332.203,108.172 332.157,112.738 332.157 L 116.000 332.157 116.137 335.701 C 116.311 340.198,115.887 339.987,124.789 339.994 L 132.127 340.000 132.240 343.617 C 132.387 348.341,132.155 348.222,141.233 348.230 L 148.152 348.235 148.294 351.361 C 148.525 356.442,141.856 355.864,201.877 356.003 C 230.501 356.069,255.026 356.011,256.376 355.873 C 259.336 355.572,259.584 355.239,259.893 351.141 L 260.113 348.235 267.312 348.235 C 276.247 348.235,276.078 348.329,276.078 343.333 L 276.078 340.000 283.469 340.000 C 292.430 340.000,292.157 340.145,292.157 335.387 L 292.157 332.207 296.176 332.032 C 300.081 331.861,303.781 331.346,305.211 330.774 C 306.189 330.382,306.968 328.714,307.284 326.336 L 307.552 324.314 310.149 324.313 C 314.865 324.312,315.963 323.242,316.039 318.579 L 316.078 316.177 319.420 316.001 C 323.539 315.785,323.628 315.696,323.845 311.577 L 324.020 308.235 326.226 308.213 C 331.269 308.163,332.079 307.085,332.127 300.360 L 332.157 296.210 333.698 294.971 C 334.545 294.290,335.349 293.387,335.483 292.965 C 335.676 292.354,336.145 292.172,337.765 292.079 L 339.804 291.961 339.916 287.941 L 340.027 283.922 343.319 283.922 C 348.013 283.922,347.843 284.239,347.843 275.462 L 347.843 268.235 351.103 268.235 C 356.140 268.235,356.078 268.343,356.078 259.453 L 356.078 252.269 358.861 252.011 C 361.905 251.728,362.868 251.365,363.385 250.305 C 363.779 249.498,364.093 149.458,363.715 145.198 C 363.358 141.179,362.840 140.648,359.092 140.459 L 356.138 140.309 356.010 132.959 C 355.854 123.953,356.048 124.314,351.348 124.314 L 347.890 124.314 347.768 116.652 C 347.627 107.721,347.912 108.250,343.235 108.241 L 340.000 108.235 340.000 104.734 C 340.000 100.183,339.827 100.000,335.515 100.000 L 332.262 100.000 332.046 94.020 C 331.717 84.926,331.349 84.314,326.216 84.314 L 323.922 84.314 323.917 82.255 C 323.906 77.039,323.494 76.526,319.046 76.190 L 316.204 75.975 315.791 72.847 C 315.194 68.331,315.436 68.456,307.046 68.302 L 300.000 68.172 300.000 64.702 C 300.000 60.178,299.829 60.000,295.462 60.000 L 292.157 60.000 292.157 57.477 C 292.157 52.200,292.107 52.170,283.235 52.163 L 276.078 52.157 276.078 49.063 C 276.078 44.195,276.233 44.285,267.360 44.022 L 260.042 43.806 259.804 41.609 C 259.430 38.149,259.270 37.701,258.148 36.966 C 257.072 36.261,160.170 35.766,152.853 36.428 M222.763 62.042 C 223.573 63.736,224.100 64.272,225.853 65.188 C 227.014 65.795,228.188 66.596,228.460 66.969 C 228.907 67.580,230.093 67.658,240.508 67.762 L 252.060 67.876 252.235 71.202 C 252.483 75.922,252.754 76.054,262.255 76.069 L 268.235 76.078 268.235 79.141 C 268.235 83.855,267.962 83.701,276.588 83.854 L 283.829 83.983 283.998 87.531 C 284.211 91.975,284.403 92.157,288.898 92.157 L 292.157 92.157 292.163 95.392 C 292.171 99.754,292.192 99.776,296.456 99.941 L 300.000 100.078 300.000 102.539 C 300.000 107.704,300.496 108.235,305.313 108.235 L 308.235 108.235 308.235 111.751 C 308.235 115.987,308.333 116.078,312.855 116.078 L 315.957 116.078 316.187 122.257 C 316.507 130.865,316.694 131.203,321.375 131.640 L 323.922 131.878 323.925 134.665 C 323.937 145.210,324.793 146.965,330.257 147.651 L 332.082 147.880 332.243 158.352 C 332.446 171.624,332.504 171.756,338.137 171.763 L 340.000 171.765 340.000 196.023 L 340.000 220.280 337.688 220.522 C 332.542 221.060,332.510 221.144,332.256 234.340 L 332.060 244.563 329.525 244.997 C 328.130 245.236,326.672 245.718,326.285 246.069 C 325.154 247.093,323.922 253.080,323.922 257.555 L 323.922 260.357 322.451 260.580 C 319.219 261.069,318.282 261.412,317.606 262.353 C 316.765 263.524,316.078 268.185,316.078 272.726 L 316.078 275.982 312.640 276.147 C 308.095 276.364,308.235 276.222,308.235 280.611 L 308.235 284.314 304.754 284.314 C 300.449 284.314,300.306 284.452,300.077 288.814 L 299.906 292.080 296.588 292.217 C 292.425 292.388,292.157 292.671,292.157 296.902 L 292.157 299.930 288.725 300.188 C 286.838 300.330,285.099 300.507,284.861 300.581 C 284.326 300.748,283.932 303.006,283.926 305.936 L 283.922 308.146 277.063 308.296 C 268.633 308.480,268.530 308.536,268.301 313.083 L 268.155 315.964 261.700 316.236 C 252.820 316.611,252.757 316.647,252.305 321.504 L 252.049 324.259 241.221 324.398 C 227.962 324.567,228.243 324.444,228.237 330.098 L 228.235 332.157 204.164 332.157 L 180.092 332.157 179.817 329.218 C 179.353 324.265,180.050 324.531,167.168 324.390 L 156.226 324.269 155.813 320.932 C 155.585 319.097,155.206 317.402,154.969 317.165 C 154.483 316.679,148.540 316.126,143.489 316.097 L 140.115 316.078 139.871 313.195 C 139.457 308.299,139.343 308.241,130.098 308.237 L 123.922 308.235 123.916 304.804 C 123.908 300.442,123.995 300.538,119.745 300.204 L 116.156 299.923 116.019 296.596 C 115.846 292.384,115.594 292.157,111.102 292.157 L 107.843 292.157 107.843 288.706 C 107.843 284.374,107.783 284.314,103.489 284.314 L 100.076 284.314 99.940 280.620 C 99.775 276.133,99.938 276.305,95.709 276.139 L 92.266 276.004 92.066 269.865 C 91.775 260.916,91.444 260.392,86.083 260.392 L 84.029 260.392 83.842 253.622 C 83.602 244.882,83.247 244.322,77.941 244.316 L 76.078 244.314 76.078 234.955 C 76.078 220.824,75.925 220.392,70.905 220.392 L 67.843 220.392 67.843 196.326 L 67.843 172.260 70.761 172.073 C 76.129 171.728,76.068 171.890,76.074 157.941 L 76.078 148.235 77.421 148.235 C 83.144 148.235,83.649 147.503,83.851 138.922 L 84.011 132.157 85.829 132.125 C 91.569 132.026,92.081 131.209,92.127 122.073 L 92.157 116.107 95.980 115.995 L 99.804 115.882 99.916 112.059 L 100.028 108.235 103.402 108.235 C 107.666 108.235,107.814 108.075,107.831 103.431 L 107.843 100.000 111.202 100.000 C 116.006 100.000,116.078 99.936,116.078 95.672 L 116.078 92.157 119.762 92.157 C 124.105 92.157,123.922 92.364,123.922 87.443 L 123.922 83.969 131.354 83.847 C 140.089 83.704,139.687 83.910,139.921 79.451 L 140.095 76.139 147.289 76.011 C 156.030 75.855,155.748 76.010,156.000 71.202 L 156.176 67.866 167.598 67.749 C 183.934 67.582,185.517 67.033,186.835 61.078 L 187.074 60.000 204.430 60.000 L 221.785 60.000 222.763 62.042 M240.900 84.262 C 236.062 84.594,236.299 84.172,236.146 92.731 L 236.017 99.935 232.694 100.211 C 228.200 100.586,228.386 100.243,228.146 108.614 C 227.909 116.883,228.287 116.062,224.548 116.419 C 220.384 116.817,220.090 117.577,220.025 128.092 C 219.997 132.489,219.969 132.531,217.019 132.544 C 213.014 132.561,212.521 133.564,212.252 142.255 L 212.043 149.020 210.811 149.020 C 208.568 149.020,206.141 150.574,205.608 152.353 C 203.962 157.845,203.922 158.152,203.922 165.143 L 203.922 172.157 200.471 172.157 C 196.133 172.157,196.078 172.212,196.078 176.549 L 196.078 180.000 192.902 180.000 C 190.970 180.000,189.243 180.221,188.491 180.565 C 187.811 180.876,186.485 181.330,185.543 181.573 C 183.373 182.134,182.141 183.364,181.573 185.540 C 181.327 186.483,180.976 187.784,180.793 188.431 C 179.753 192.100,180.143 205.548,181.373 208.494 C 182.341 210.810,185.099 211.711,192.207 212.035 L 195.983 212.207 196.157 215.524 C 196.391 219.988,195.989 219.781,204.725 219.933 L 212.157 220.061 212.157 223.678 C 212.157 228.200,212.190 228.235,216.549 228.235 L 220.000 228.235 220.000 231.398 C 220.000 235.983,220.088 236.078,224.303 236.078 L 227.795 236.078 228.018 237.745 C 228.140 238.662,228.284 240.382,228.336 241.569 L 228.431 243.725 232.255 243.838 L 236.078 243.950 236.078 247.583 C 236.078 252.124,236.110 252.157,240.471 252.157 L 243.922 252.157 243.922 255.073 C 243.922 259.915,243.999 260.000,248.422 260.000 L 252.157 260.000 252.157 263.647 C 252.157 268.597,251.229 268.235,263.939 268.235 C 277.619 268.235,276.078 269.785,276.078 256.028 C 276.078 243.738,276.244 244.314,272.716 244.314 C 271.384 244.314,269.743 244.203,269.069 244.069 L 267.843 243.824 267.843 240.422 C 267.843 236.139,267.781 236.078,263.451 236.078 L 260.000 236.078 260.000 232.777 C 260.000 228.050,260.169 228.235,255.840 228.235 L 252.157 228.235 252.151 224.804 C 252.143 220.267,252.199 220.326,247.690 220.090 L 243.922 219.893 243.922 216.496 C 243.922 212.218,243.859 212.157,239.529 212.157 L 236.078 212.157 236.078 208.856 C 236.078 204.319,236.075 204.315,233.193 204.309 C 231.868 204.307,230.149 204.200,229.374 204.072 L 227.963 203.838 227.720 197.665 C 227.472 191.364,227.128 189.593,225.986 188.725 C 225.406 188.285,225.427 188.235,226.186 188.235 C 227.624 188.235,227.843 187.074,227.843 179.438 L 227.843 172.157 231.176 172.157 C 236.174 172.157,236.078 172.328,236.078 163.374 L 236.078 156.159 239.392 156.021 C 243.907 155.832,243.703 156.222,243.847 147.487 L 243.968 140.109 247.096 139.894 C 251.883 139.566,252.151 139.040,252.155 129.958 L 252.157 124.034 254.869 123.782 C 259.755 123.328,259.706 123.418,259.926 114.462 L 260.095 107.551 262.414 107.341 C 266.530 106.968,267.451 105.493,267.451 99.273 C 267.451 90.954,265.492 86.548,261.394 85.648 C 260.741 85.505,260.004 85.109,259.755 84.768 C 259.250 84.078,247.991 83.775,240.900 84.262 " stroke="none" fill="#040404" fill-rule="evenodd"></path><path id="path1" d="" stroke="none" fill="#080404" fill-rule="evenodd"></path><path id="path2" d="" stroke="none" fill="#080404" fill-rule="evenodd"></path><path id="path3" d="" stroke="none" fill="#080404" fill-rule="evenodd"></path><path id="path4" d="" stroke="none" fill="#080404" fill-rule="evenodd"></path></g></svg>